Coordinates
version=1
nRows=12
nColumns=33
inDegrees=yes

Units are S.I. units (second, meters, Newtons, ...)
Angles are in degrees.

endheader
time	ground_thorax_rot_x	ground_thorax_rot_y	ground_thorax_rot_z	ground_thorax_tx	ground_thorax_ty	ground_thorax_tz	clav_prot_r	clav_elev_r	scapula_abduction_r	scapula_elevation_r	scapula_upward_rot_r	scapula_winging_r	shoulder_elv_r	plane_of_elev_r	axial_rot_r	elbow_flexion_r	pro_sup_r	wrist_flex_r	wrist_dev_r	clav_prot_l	clav_elev_l	scapula_abduction_l	scapula_elevation_l	scapula_upward_rot_l	scapula_winging_l	shoulder_elv_l	plane_of_elev_l	axial_rot_l	elbow_flexion_l	pro_sup_l	wrist_flex_l	wrist_dev_l
      8.02000000	     18.28905217	     34.52067903	     57.83932105	     21.93736357	    782.69497706	    -36.96125459	     12.84402413	     35.80885074	     25.15083087	     45.00000000	    -45.00000000	  -1879.14418032	  -1729.73960766	     22.34401898	    179.99999979	   1083.13295889	   -168.51941454	     12.35351568	     13.69988781	    -14.00442619	    -45.00000000	    -34.97875630	     45.00000000	    -45.00000000	  -3858.92486141	  -2085.80936083	     24.68853289	     26.05914321	    -10.88256927	     45.65747351	     11.74519358	    -13.31431319
      8.03000000	     18.07592504	     34.77561933	     58.11891868	     21.81728520	    782.74814408	    -37.02598061	     12.43190356	     35.58628072	     24.86576795	     45.00000000	    -45.00000000	  -1879.24349714	  -1729.60520499	     22.33852498	    179.99999979	   1083.09507584	   -168.68018654	     12.42943904	     13.58797371	    -13.91230375	    -45.00000000	    -35.26857156	     45.00000000	    -45.00000000	  -3858.96944876	  -2085.83879878	     24.50410839	     26.28352302	    -10.95474979	     45.50491281	     11.68977383	    -13.54090793
      8.04000000	     18.47134793	     34.58002903	     57.70393999	     21.62864279	    782.83954589	    -37.09817298	     12.64978820	     35.91308977	     25.18956685	     45.00000000	    -45.00000000	  -1879.19062042	  -1729.61102346	     22.37600540	    179.99999979	   1083.11153559	   -168.76818586	     12.21878845	     13.72557625	    -13.65870856	    -45.00000000	    -34.90135974	     45.00000000	    -45.00000000	  -3858.83755213	  -2085.84285391	     24.85249130	     26.21889247	    -10.91627016	     45.46944257	     11.81424688	    -13.13330476
      8.05000000	     18.23458356	     34.68014065	     57.94092471	     21.38043785	    782.96738452	    -37.17347937	     12.58913731	     35.62926575	     24.94285237	     45.00000000	    -45.00000000	  -1879.16862550	  -1729.59909602	     22.45502294	    179.99999979	   1083.24223203	   -168.94186166	     12.31072802	     13.56680401	    -13.94797941	    -45.00000000	    -35.15811493	     45.00000000	    -45.00000000	  -3858.91434068	  -2085.61419227	     24.61594677	     26.40141514	    -10.99705770	     45.33126165	     11.71987810	    -13.52250366
      8.06000000	     18.53516804	     34.62449467	     57.54525410	     21.07987180	    783.13036459	    -37.25132797	     12.58536137	     35.87391650	     25.24351645	     45.00000000	    -45.00000000	  -1879.27108234	  -1729.71367654	     22.39709919	    179.99999979	   1083.15788986	   -169.05447179	     12.17169120	     13.63398313	    -13.69931150	    -45.00000000	    -35.19365966	     45.00000000	    -45.00000000	  -3858.87013480	  -2085.81774024	     24.78167993	     26.44676205	    -10.84819724	     45.29791683	     11.80936345	    -13.25609098
      8.07000000	     18.31460121	     34.77058188	     57.78884621	     20.73298913	    783.32611420	    -37.33263260	     12.68061512	     35.59942951	     24.95499783	     45.00000000	    -45.00000000	  -1879.31227291	  -1729.65434261	     22.48389187	    179.99999979	   1083.21410392	   -169.23622554	     12.31505203	     13.49304452	    -14.01551009	    -45.00000000	    -35.24943674	     45.00000000	    -45.00000000	  -3858.95206581	  -2085.49344639	     24.66106354	     26.65777832	    -11.09242051	     45.19879965	     11.76350841	    -13.64031768
      8.08000000	     18.54791002	     34.74307978	     57.57202640	     20.33933374	    783.55753925	    -37.41861694	     12.64935264	     35.78404228	     25.16483643	     45.00000000	    -45.00000000	  -1879.36195946	  -1729.59544457	     22.47327497	    179.99999979	   1083.17186954	   -169.40565571	     12.18851024	     13.48764716	    -13.75929162	    -45.00000000	    -35.22243730	     45.00000000	    -45.00000000	  -3858.90983673	  -2085.60458434	     24.79238035	     26.69420128	    -11.01616281	     45.16340209	     11.85006981	    -13.39472295
      8.09000000	     18.72251917	     34.78675506	     57.33981823	     19.91382450	    783.81748854	    -37.50855757	     12.59965528	     35.71643729	     25.31832699	     45.00000000	    -45.00000000	  -1879.56516229	  -1729.71902994	     22.44344876	    179.99999979	   1082.98185546	   -169.54889517	     12.21281430	     13.64485979	    -13.80863127	    -45.00000000	    -35.43848663	     45.00000000	    -45.00000000	  -3858.90088460	  -2085.78185352	     24.76906173	     26.92152235	    -10.89402582	     45.06960482	     11.82923021	    -13.55063272
      8.10000000	     18.65388292	     34.76977143	     57.45725976	     19.43867433	    784.11937706	    -37.60915237	     12.69694822	     35.82699962	     25.20572288	     45.00000000	    -45.00000000	  -1879.48421093	  -1729.57016111	     22.47669705	    179.99999979	   1083.05052813	   -169.74820487	     12.19953553	     13.35712996	    -13.72179289	    -45.00000000	    -35.23471596	     45.00000000	    -45.00000000	  -3858.90603066	  -2085.42330360	     24.81607126	     27.01384261	    -11.00584709	     45.03093633	     11.84718956	    -13.36049425
      8.11000000	     18.85032426	     34.76682570	     57.10219806	     18.92426180	    784.45995626	    -37.72178725	     12.63243633	     35.72109691	     25.40815270	     45.00000000	    -45.00000000	  -1879.65880042	  -1729.63839284	     22.54975462	    179.99999979	   1083.07141425	   -169.90744705	     12.11798956	     13.61768160	    -13.67631351	    -45.00000000	    -35.48346630	     45.00000000	    -45.00000000	  -3858.85350023	  -2085.56949482	     24.96651632	     27.20128362	    -10.92809673	     44.91705600	     11.90413216	    -13.61046943
      8.12000000	     18.76107206	     34.92453889	     57.28260920	     18.36749787	    784.84377422	    -37.85368328	     12.75264352	     35.92981214	     25.28546406	     45.00000000	    -45.00000000	  -1879.66975117	  -1729.51826434	     22.48511950	    179.99999979	   1082.99237279	   -170.13262042	     12.20182911	     13.18199648	    -13.68416474	    -45.00000000	    -35.26760471	     45.00000000	    -45.00000000	  -3858.92943712	  -2085.29698614	     24.93731603	     27.40490383	    -10.91992586	     44.87626900	     11.85781880	    -13.35511169
      8.13000000	     18.95292568	     34.86328144	     57.09198477	     17.75687714	    785.28150118	    -38.01066147	     12.69618516	     35.76024632	     25.45737492	     45.00000000	    -45.00000000	  -1879.74059908	  -1729.46019192	     22.54322656	    179.99999979	   1082.97914263	   -170.34128497	     12.11364699	     13.40714873	    -13.56079693	    -45.00000000	    -35.43248282	     45.00000000	    -45.00000000	  -3858.83404460	  -2085.36181755	     24.97811248	     27.52941868	    -10.93448661	     44.78859087	     11.88565971	    -13.55355556
